# Created by FreeCAD <http://www.freecadweb.org>
v 20.000000 20.000000 75.000000
v -20.000000 20.000000 81.000000
v 20.000000 20.000000 81.000000
v -20.000000 20.000000 75.000000
v 20.000000 -20.000000 75.000000
v 20.000000 -20.000000 81.000000
v -1.000000 1.000000 100.000000
v 1.000000 1.000000 100.000000
v -10.000000 10.000000 75.000000
v -20.000000 -20.000000 75.000000
v -10.000000 -10.000000 75.000000
v 10.000000 -10.000000 75.000000
v 10.000000 10.000000 75.000000
v -20.000000 -20.000000 81.000000
v 1.000000 -1.000000 100.000000
v -1.000000 -1.000000 100.000000
v 10.000000 10.000000 0.000000
v -10.000000 10.000000 0.000000
v -10.000000 -10.000000 0.000000
v 10.000000 -10.000000 0.000000
vn 0.000000 1.000000 -0.000000
vn 0.000000 1.000000 0.000000
vn 1.000000 0.000000 0.000000
vn 1.000000 -0.000000 0.000000
vn -0.000000 0.707107 0.707107
vn 0.000000 0.707107 0.707107
vn 0.000000 0.000000 -1.000000
vn 0.000000 0.000000 -1.000000
vn 0.000000 0.000000 -1.000000
vn 0.000000 -0.000000 -1.000000
vn 0.000000 0.000000 -1.000000
vn 0.000000 0.000000 -1.000000
vn 0.000000 0.000000 -1.000000
vn 0.000000 0.000000 -1.000000
vn -1.000000 0.000000 0.000000
vn -1.000000 -0.000000 0.000000
vn 0.000000 -1.000000 0.000000
vn 0.000000 -1.000000 0.000000
vn 0.707107 0.000000 0.707107
vn 0.707107 0.000000 0.707107
vn 0.000000 0.000000 1.000000
vn 0.000000 0.000000 1.000000
vn -0.707107 0.000000 0.707107
vn -0.707107 0.000000 0.707107
vn 0.000000 1.000000 -0.000000
vn 0.000000 1.000000 0.000000
vn -1.000000 0.000000 0.000000
vn -1.000000 -0.000000 0.000000
vn 0.000000 -1.000000 0.000000
vn 0.000000 -1.000000 0.000000
vn 1.000000 0.000000 0.000000
vn 1.000000 -0.000000 0.000000
vn 0.000000 -0.707107 0.707107
vn 0.000000 -0.707107 0.707107
vn 0.000000 0.000000 -1.000000
vn 0.000000 0.000000 -1.000000
f 1//1 2//1 3//1
f 1//2 4//2 2//2
f 5//3 1//3 6//3
f 6//4 1//4 3//4
f 7//5 8//5 3//5
f 7//6 3//6 2//6
f 4//7 9//7 10//7
f 10//8 9//8 11//8
f 10//9 12//9 5//9
f 11//10 12//10 10//10
f 9//11 1//11 13//11
f 13//12 1//12 12//12
f 12//13 1//13 5//13
f 4//14 1//14 9//14
f 4//15 10//15 2//15
f 2//16 10//16 14//16
f 10//17 5//17 14//17
f 14//18 5//18 6//18
f 8//19 15//19 6//19
f 8//20 6//20 3//20
f 8//21 7//21 16//21
f 8//22 16//22 15//22
f 16//23 7//23 2//23
f 16//24 2//24 14//24
f 17//25 18//25 13//25
f 13//26 18//26 9//26
f 18//27 19//27 9//27
f 9//28 19//28 11//28
f 19//29 20//29 11//29
f 11//30 20//30 12//30
f 20//31 17//31 12//31
f 12//32 17//32 13//32
f 15//33 16//33 14//33
f 15//34 14//34 6//34
f 18//35 17//35 19//35
f 19//36 17//36 20//36
